<svg width="52" height="52" viewBox="0 0 52 52" fill="none" xmlns="http://www.w3.org/2000/svg">
<g clip-path="url(#clip0_657_37265)">
<path d="M26 0C11.6299 0 0 11.6286 0 26C0 40.3701 11.6286 52 26 52C40.3701 52 52 40.3714 52 26C52 11.6299 40.3714 0 26 0ZM37.1674 24.7243L33.8874 29.2702C34.3077 29.9494 34.5511 30.7489 34.5511 31.6044C34.5511 34.0576 32.5552 36.0533 30.1022 36.0533C27.6492 36.0533 25.6534 34.0575 25.6534 31.6044C25.6534 30.7786 25.8804 30.0052 26.2739 29.3418L22.9393 24.72C22.2867 24.8771 21.6103 24.8874 20.9378 24.7388L17.6282 29.3258C18.0275 29.9927 18.2579 30.772 18.2579 31.6043C18.2579 34.0575 16.2621 36.0532 13.809 36.0532C11.3559 36.0532 9.3601 34.0574 9.3601 31.6043C9.3601 28.7531 12.0269 26.6121 14.8327 27.2756L18.1127 22.7297C17.6924 22.0505 17.449 21.251 17.449 20.3955C17.449 17.9423 19.4449 15.9466 21.8979 15.9466C24.351 15.9466 26.3467 17.9424 26.3467 20.3955C26.3467 21.2213 26.1197 21.9947 25.7262 22.6581L29.0608 27.2799C29.7134 27.1228 30.3898 27.1125 31.0623 27.2611L34.3719 22.6741C33.9726 22.0073 33.7422 21.228 33.7422 20.3956C33.7422 17.9424 35.738 15.9467 38.1911 15.9467C40.6442 15.9467 42.6399 17.9425 42.6399 20.3956C42.64 23.2467 39.9732 25.3878 37.1674 24.7243Z" fill="#26B5BE"/>
</g>
<defs>
<clipPath id="clip0_657_37265">
<rect width="52" height="52" fill="white"/>
</clipPath>
</defs>
</svg>
